<mxfile host="app.diagrams.net" modified="2020-11-14T09:11:26.215Z" agent="5.0 (Windows)" etag="cUyJknyOqesVkbj6T3pA" version="13.9.8" type="github">
  <diagram id="UwiZ7Xb7AI9jqMsajeLm" name="ContractConfirmationActionPlan">
    <mxGraphModel dx="1038" dy="547" grid="1" gridSize="11" guides="1" tooltips="1" connect="1" arrows="1" fold="1" page="0" pageScale="1" pageWidth="827" pageHeight="1169" math="0" shadow="0">
      <root>
        <mxCell id="_9zcXTLAqAjNUVDO9D7l-0" />
        <mxCell id="_9zcXTLAqAjNUVDO9D7l-1" parent="_9zcXTLAqAjNUVDO9D7l-0" />
        <mxCell id="_9zcXTLAqAjNUVDO9D7l-4" value="" style="edgeStyle=orthogonalEdgeStyle;orthogonalLoop=1;jettySize=auto;html=1;sketch=1;" parent="_9zcXTLAqAjNUVDO9D7l-1" source="_9zcXTLAqAjNUVDO9D7l-2" target="_9zcXTLAqAjNUVDO9D7l-3" edge="1">
          <mxGeometry relative="1" as="geometry" />
        </mxCell>
        <mxCell id="_9zcXTLAqAjNUVDO9D7l-35" value="" style="edgeStyle=orthogonalEdgeStyle;orthogonalLoop=1;jettySize=auto;html=1;fontFamily=Tahoma;entryX=1;entryY=0.5;entryDx=0;entryDy=0;sketch=1;" parent="_9zcXTLAqAjNUVDO9D7l-1" source="_9zcXTLAqAjNUVDO9D7l-2" target="_9zcXTLAqAjNUVDO9D7l-36" edge="1">
          <mxGeometry relative="1" as="geometry">
            <mxPoint x="321.2499699999926" y="130.70000000000005" as="targetPoint" />
          </mxGeometry>
        </mxCell>
        <mxCell id="_9zcXTLAqAjNUVDO9D7l-2" value="&lt;font face=&quot;Tahoma&quot;&gt;در لیست قرارداد&lt;br&gt; هست ؟&lt;/font&gt;" style="rhombus;whiteSpace=wrap;html=1;sketch=1;rounded=1;" parent="_9zcXTLAqAjNUVDO9D7l-1" vertex="1">
          <mxGeometry x="390" y="80" width="97.5" height="101.48" as="geometry" />
        </mxCell>
        <mxCell id="_9zcXTLAqAjNUVDO9D7l-7" value="" style="edgeStyle=orthogonalEdgeStyle;orthogonalLoop=1;jettySize=auto;html=1;fontFamily=Tahoma;sketch=1;" parent="_9zcXTLAqAjNUVDO9D7l-1" source="_9zcXTLAqAjNUVDO9D7l-3" target="_9zcXTLAqAjNUVDO9D7l-6" edge="1">
          <mxGeometry relative="1" as="geometry" />
        </mxCell>
        <mxCell id="_9zcXTLAqAjNUVDO9D7l-3" value="&lt;div&gt;امروز در بازه زمانی &lt;br&gt;قرارداد هست؟&lt;br&gt; &lt;/div&gt;" style="rhombus;whiteSpace=wrap;html=1;fontFamily=Tahoma;sketch=1;rounded=1;" parent="_9zcXTLAqAjNUVDO9D7l-1" vertex="1">
          <mxGeometry x="388.75" y="210" width="100" height="100" as="geometry" />
        </mxCell>
        <mxCell id="_9zcXTLAqAjNUVDO9D7l-9" value="" style="edgeStyle=orthogonalEdgeStyle;orthogonalLoop=1;jettySize=auto;html=1;fontFamily=Tahoma;sketch=1;" parent="_9zcXTLAqAjNUVDO9D7l-1" source="_9zcXTLAqAjNUVDO9D7l-6" target="_9zcXTLAqAjNUVDO9D7l-8" edge="1">
          <mxGeometry relative="1" as="geometry" />
        </mxCell>
        <mxCell id="_9zcXTLAqAjNUVDO9D7l-15" value="" style="edgeStyle=orthogonalEdgeStyle;orthogonalLoop=1;jettySize=auto;html=1;fontFamily=Tahoma;sketch=1;" parent="_9zcXTLAqAjNUVDO9D7l-1" source="_9zcXTLAqAjNUVDO9D7l-6" target="_9zcXTLAqAjNUVDO9D7l-14" edge="1">
          <mxGeometry relative="1" as="geometry" />
        </mxCell>
        <mxCell id="_9zcXTLAqAjNUVDO9D7l-6" value="تاییدیه تلفن انجام شده ؟" style="rhombus;whiteSpace=wrap;html=1;fontFamily=Tahoma;sketch=1;rounded=1;" parent="_9zcXTLAqAjNUVDO9D7l-1" vertex="1">
          <mxGeometry x="388.75" y="350" width="100" height="100" as="geometry" />
        </mxCell>
        <mxCell id="_9zcXTLAqAjNUVDO9D7l-13" value="" style="edgeStyle=orthogonalEdgeStyle;orthogonalLoop=1;jettySize=auto;html=1;fontFamily=Tahoma;sketch=1;" parent="_9zcXTLAqAjNUVDO9D7l-1" source="_9zcXTLAqAjNUVDO9D7l-8" target="_9zcXTLAqAjNUVDO9D7l-12" edge="1">
          <mxGeometry relative="1" as="geometry" />
        </mxCell>
        <mxCell id="_9zcXTLAqAjNUVDO9D7l-17" value="" style="edgeStyle=orthogonalEdgeStyle;orthogonalLoop=1;jettySize=auto;html=1;fontFamily=Tahoma;sketch=1;" parent="_9zcXTLAqAjNUVDO9D7l-1" source="_9zcXTLAqAjNUVDO9D7l-8" target="_9zcXTLAqAjNUVDO9D7l-16" edge="1">
          <mxGeometry relative="1" as="geometry" />
        </mxCell>
        <mxCell id="_9zcXTLAqAjNUVDO9D7l-8" value="شماره تلفن &lt;br&gt;معتبر دارد ؟" style="rhombus;whiteSpace=wrap;html=1;fontFamily=Tahoma;sketch=1;rounded=1;" parent="_9zcXTLAqAjNUVDO9D7l-1" vertex="1">
          <mxGeometry x="210" y="350" width="100" height="100" as="geometry" />
        </mxCell>
        <mxCell id="_9zcXTLAqAjNUVDO9D7l-19" value="" style="edgeStyle=orthogonalEdgeStyle;orthogonalLoop=1;jettySize=auto;html=1;fontFamily=Tahoma;sketch=1;" parent="_9zcXTLAqAjNUVDO9D7l-1" source="_9zcXTLAqAjNUVDO9D7l-12" target="_9zcXTLAqAjNUVDO9D7l-18" edge="1">
          <mxGeometry relative="1" as="geometry" />
        </mxCell>
        <mxCell id="_9zcXTLAqAjNUVDO9D7l-12" value="ارسال کد تاییدیه&lt;br&gt;و ثبت زمان ارسال" style="rhombus;whiteSpace=wrap;html=1;fontFamily=Tahoma;sketch=1;rounded=1;" parent="_9zcXTLAqAjNUVDO9D7l-1" vertex="1">
          <mxGeometry x="210" y="500" width="100" height="100" as="geometry" />
        </mxCell>
        <mxCell id="_9zcXTLAqAjNUVDO9D7l-14" value="نمایش قرارداد و زمان تاییدیه" style="rhombus;whiteSpace=wrap;html=1;fontFamily=Tahoma;sketch=1;rounded=1;" parent="_9zcXTLAqAjNUVDO9D7l-1" vertex="1">
          <mxGeometry x="388.75" y="500" width="100" height="100" as="geometry" />
        </mxCell>
        <mxCell id="_9zcXTLAqAjNUVDO9D7l-16" value="شماره تلفن معتبری در سیستم وجود ندارد. لطفا به شرکت اطلاع دهید" style="shape=document;whiteSpace=wrap;html=1;boundedLbl=1;fontFamily=Tahoma;shadow=0;sketch=1;rounded=1;" parent="_9zcXTLAqAjNUVDO9D7l-1" vertex="1">
          <mxGeometry x="20" y="360" width="120" height="80" as="geometry" />
        </mxCell>
        <mxCell id="_9zcXTLAqAjNUVDO9D7l-22" style="edgeStyle=orthogonalEdgeStyle;orthogonalLoop=1;jettySize=auto;html=1;exitX=1;exitY=0.5;exitDx=0;exitDy=0;entryX=1;entryY=0.5;entryDx=0;entryDy=0;fontFamily=Tahoma;sketch=1;" parent="_9zcXTLAqAjNUVDO9D7l-1" source="_9zcXTLAqAjNUVDO9D7l-18" target="_9zcXTLAqAjNUVDO9D7l-6" edge="1">
          <mxGeometry relative="1" as="geometry">
            <Array as="points">
              <mxPoint x="600" y="700" />
              <mxPoint x="600" y="400" />
            </Array>
          </mxGeometry>
        </mxCell>
        <mxCell id="_9zcXTLAqAjNUVDO9D7l-18" value="دریافت کد تاییدیه و ثبت در دیتابیس" style="rhombus;whiteSpace=wrap;html=1;fontFamily=Tahoma;shadow=0;arcSize=0;sketch=1;rounded=1;" parent="_9zcXTLAqAjNUVDO9D7l-1" vertex="1">
          <mxGeometry x="210" y="650" width="100" height="100" as="geometry" />
        </mxCell>
        <mxCell id="_9zcXTLAqAjNUVDO9D7l-23" value="بله" style="text;html=1;strokeColor=none;fillColor=none;align=center;verticalAlign=middle;whiteSpace=wrap;fontFamily=Tahoma;sketch=1;rounded=1;" parent="_9zcXTLAqAjNUVDO9D7l-1" vertex="1">
          <mxGeometry x="440" y="460" width="40" height="20" as="geometry" />
        </mxCell>
        <mxCell id="_9zcXTLAqAjNUVDO9D7l-24" value="بله" style="text;html=1;strokeColor=none;fillColor=none;align=center;verticalAlign=middle;whiteSpace=wrap;fontFamily=Tahoma;sketch=1;rounded=1;" parent="_9zcXTLAqAjNUVDO9D7l-1" vertex="1">
          <mxGeometry x="440" y="310" width="40" height="20" as="geometry" />
        </mxCell>
        <mxCell id="_9zcXTLAqAjNUVDO9D7l-25" value="بله" style="text;html=1;strokeColor=none;fillColor=none;align=center;verticalAlign=middle;whiteSpace=wrap;fontFamily=Tahoma;sketch=1;rounded=1;" parent="_9zcXTLAqAjNUVDO9D7l-1" vertex="1">
          <mxGeometry x="440" y="181.48" width="40" height="20" as="geometry" />
        </mxCell>
        <mxCell id="_9zcXTLAqAjNUVDO9D7l-26" value="خیر" style="text;html=1;strokeColor=none;fillColor=none;align=center;verticalAlign=middle;whiteSpace=wrap;fontFamily=Tahoma;sketch=1;rounded=1;" parent="_9zcXTLAqAjNUVDO9D7l-1" vertex="1">
          <mxGeometry x="340" y="380" width="40" height="20" as="geometry" />
        </mxCell>
        <mxCell id="_9zcXTLAqAjNUVDO9D7l-27" value="خیر" style="text;html=1;strokeColor=none;fillColor=none;align=center;verticalAlign=middle;whiteSpace=wrap;fontFamily=Tahoma;sketch=1;rounded=1;" parent="_9zcXTLAqAjNUVDO9D7l-1" vertex="1">
          <mxGeometry x="160" y="380" width="40" height="20" as="geometry" />
        </mxCell>
        <mxCell id="_9zcXTLAqAjNUVDO9D7l-28" value="" style="edgeStyle=orthogonalEdgeStyle;orthogonalLoop=1;jettySize=auto;html=1;fontFamily=Tahoma;sketch=1;" parent="_9zcXTLAqAjNUVDO9D7l-1" target="_9zcXTLAqAjNUVDO9D7l-30" edge="1">
          <mxGeometry relative="1" as="geometry">
            <mxPoint x="210" y="700" as="sourcePoint" />
          </mxGeometry>
        </mxCell>
        <mxCell id="_9zcXTLAqAjNUVDO9D7l-29" value="خیر" style="text;html=1;strokeColor=none;fillColor=none;align=center;verticalAlign=middle;whiteSpace=wrap;fontFamily=Tahoma;sketch=1;rounded=1;" parent="_9zcXTLAqAjNUVDO9D7l-1" vertex="1">
          <mxGeometry x="160" y="680" width="40" height="20" as="geometry" />
        </mxCell>
        <mxCell id="_9zcXTLAqAjNUVDO9D7l-30" value="کد تاییدیه وارد شده صحیح نیست" style="shape=document;whiteSpace=wrap;html=1;boundedLbl=1;fontFamily=Tahoma;shadow=0;sketch=1;rounded=1;" parent="_9zcXTLAqAjNUVDO9D7l-1" vertex="1">
          <mxGeometry x="20" y="660" width="120" height="80" as="geometry" />
        </mxCell>
        <mxCell id="_9zcXTLAqAjNUVDO9D7l-31" value="" style="edgeStyle=orthogonalEdgeStyle;orthogonalLoop=1;jettySize=auto;html=1;fontFamily=Tahoma;sketch=1;" parent="_9zcXTLAqAjNUVDO9D7l-1" target="_9zcXTLAqAjNUVDO9D7l-32" edge="1">
          <mxGeometry relative="1" as="geometry">
            <mxPoint x="388.75" y="260" as="sourcePoint" />
          </mxGeometry>
        </mxCell>
        <mxCell id="_9zcXTLAqAjNUVDO9D7l-32" value="امکان دریافت قرارداد وجود ندارد" style="shape=document;whiteSpace=wrap;html=1;boundedLbl=1;fontFamily=Tahoma;sketch=1;rounded=1;" parent="_9zcXTLAqAjNUVDO9D7l-1" vertex="1">
          <mxGeometry x="20" y="220" width="120" height="80" as="geometry" />
        </mxCell>
        <mxCell id="_9zcXTLAqAjNUVDO9D7l-33" value="خیر" style="text;html=1;strokeColor=none;fillColor=none;align=center;verticalAlign=middle;whiteSpace=wrap;fontFamily=Tahoma;sketch=1;rounded=1;" parent="_9zcXTLAqAjNUVDO9D7l-1" vertex="1">
          <mxGeometry x="338.75" y="240" width="40" height="20" as="geometry" />
        </mxCell>
        <mxCell id="_9zcXTLAqAjNUVDO9D7l-36" value="امکان دریافت قرارداد وجود ندارد" style="shape=document;whiteSpace=wrap;html=1;boundedLbl=1;fontFamily=vazir;sketch=1;rounded=1;" parent="_9zcXTLAqAjNUVDO9D7l-1" vertex="1">
          <mxGeometry x="20" y="90.74000000000001" width="120" height="80" as="geometry" />
        </mxCell>
        <mxCell id="_9zcXTLAqAjNUVDO9D7l-37" value="خیر" style="text;html=1;strokeColor=none;fillColor=none;align=center;verticalAlign=middle;whiteSpace=wrap;fontFamily=Tahoma;sketch=1;rounded=1;" parent="_9zcXTLAqAjNUVDO9D7l-1" vertex="1">
          <mxGeometry x="338.75" y="110" width="40" height="20" as="geometry" />
        </mxCell>
      </root>
    </mxGraphModel>
  </diagram>
</mxfile>
